<svg width="180" height="180" viewBox="0 0 180 180" fill="none" xmlns="http://www.w3.org/2000/svg">
<g clip-path="url(#clip0_4745_100769)">
<path d="M180 0H0V180H180V0Z" fill="black"/>
<mask id="mask0_4745_100769" style="mask-type:luminance" maskUnits="userSpaceOnUse" x="10" y="10" width="160" height="160">
<path d="M170 10H10V170H170V10Z" fill="white"/>
</mask>
<g mask="url(#mask0_4745_100769)">
<path d="M10 10H170V170H10V10Z" fill="black"/>
<path fill-rule="evenodd" clip-rule="evenodd" d="M115.055 72.4993C115.055 79.8631 109.086 85.8326 101.722 85.8326C94.3583 85.8326 88.3888 79.8631 88.3888 72.4993C88.3888 65.1355 94.3583 59.166 101.722 59.166C109.086 59.166 115.055 65.1355 115.055 72.4993ZM81.9999 59.7771H28.6667L28.6665 86.4437H55.3332V125.555H81.9999V59.7771ZM128.755 59.7771H159.333L131.778 125.555H101.111L128.755 59.7771Z" fill="white"/>
</g>
</g>
<defs>
<clipPath id="clip0_4745_100769">
<rect width="180" height="180" rx="90" fill="white"/>
</clipPath>
</defs>
</svg>
